<?xml version="1.0" encoding="UTF-8"?> <svg xmlns="http://www.w3.org/2000/svg" xmlns:xlink="http://www.w3.org/1999/xlink" width="20px" height="24px" viewBox="0 0 20 24" version="1.1"><!-- Generator: Sketch 59.1 (86144) - https://sketch.com --><title>Find Icon</title><desc>Created with Sketch.</desc><g id="Rachel---VD" stroke="none" stroke-width="1" fill="none" fill-rule="evenodd"><g id="icons/location-Wendys" transform="translate(-2.000000, 0.000000)" fill="#CD2028"><path d="M12,-7.10542736e-15 C17.2467051,-7.10542736e-15 21.5,4.25329488 21.5,9.5 C21.5,10.3217426 21.3956665,11.1191168 21.1995237,11.8795984 C20.26132,16.4784004 12.0007143,24 12.0007143,24 C12.0007143,24 3.77368578,16.5089737 2.80732566,11.906771 C2.60692209,11.1387753 2.5,10.3318741 2.5,9.5 C2.5,4.25329488 6.75329488,-7.10542736e-15 12,-7.10542736e-15 Z M16.5249172,4.00168582 L16.4089817,4.01763992 C15.8579153,4.13157767 15.5340578,4.78671975 15.0949003,6.22940381 C14.7258271,7.44473985 14.5161393,8.21856709 14.2160201,9.53096122 C14.0865901,10.1291344 13.9571602,10.7278351 13.8282954,11.3260083 C13.8085136,11.4156816 13.7892969,11.5058823 13.7706454,11.5955555 C13.7265601,11.7817593 13.7039523,11.8350358 13.6333027,11.8498055 C13.5976954,11.8571904 13.55361,11.8345083 13.5326978,11.7585498 C13.4869169,11.5913356 13.4490487,11.2453024 13.4213541,10.8006287 C13.3868771,9.77835384 13.2953153,8.71862724 13.3348791,7.37774867 C13.3580521,6.61183377 13.3563565,6.48840121 13.3032281,6.29217507 C13.199232,5.91291005 12.6956421,5.6871445 12.1457061,5.81637945 C11.5969005,5.94666939 11.4352544,6.52268803 11.1181792,7.30759255 C10.904535,7.83982956 10.5801124,8.78509093 10.2579505,9.70186785 C9.95613567,10.6524041 9.60006201,11.8155187 9.60006201,11.8155187 C9.57801935,11.8962246 9.5559767,11.976403 9.53393404,12.0571089 C9.51189138,12.1372873 9.49041393,12.2179932 9.46837127,12.2981717 C9.38980899,12.4949253 9.36211437,12.5339595 9.30955111,12.5482017 C9.25642266,12.5619165 9.22703246,12.5212998 9.21007657,12.461166 C9.17729518,12.3419533 9.18238195,11.5797308 9.19255548,11.1777838 C9.21346774,10.3585924 9.29824719,9.46871745 9.38020065,8.67326313 C9.42711194,8.09882696 9.5853669,7.09501425 9.63284339,6.52057807 C9.64923408,6.34703399 9.66618997,6.16557757 9.67014635,6.042145 C9.68031988,5.67606722 9.65375565,5.49988569 9.48250118,5.31895676 C9.21516333,5.0989936 8.88791468,5.11534578 8.51149396,5.19552419 C7.90447314,5.32423166 7.45062052,5.67501224 7.50431417,5.86754595 C7.51279211,5.89655787 7.54444311,5.92451482 7.5755289,5.96671399 C7.6676559,6.09120154 7.71513239,6.16135765 7.75243534,6.28690018 C7.79595545,6.43459727 7.81686772,6.63979072 7.81573732,6.96999921 C7.80273781,7.26697586 7.7891731,7.56342501 7.77560839,7.86040166 C7.69930689,8.75502402 7.58400685,10.3675597 7.55292105,11.470013 C7.52579163,12.4226592 7.5602686,13.0841312 7.64052648,14.0257001 C7.68122061,14.4993858 7.7886079,14.8860356 7.84625792,15.0938665 C7.94912365,15.4657467 8.15202912,15.8792986 8.50245081,15.9621144 C8.7630063,16.0238307 8.96308579,16.009061 9.30615994,15.9257176 C9.62097427,15.8487042 10.0974347,15.5680797 10.2025612,15.1255159 C10.3365128,14.6328406 10.4715947,14.1396379 10.6061114,13.6469626 C10.7253678,13.120528 10.9960968,12.1884538 11.2278273,11.3792848 C11.3600832,10.8976868 11.5335985,10.3591199 11.6262907,10.0800779 C11.6816799,9.93818319 11.7088094,9.90020394 11.7444167,9.89176411 C11.7805893,9.88332427 11.8015015,9.89387407 11.8099795,9.92446846 C11.8145011,9.93976566 11.8190226,9.96192022 11.820153,10.0146692 C11.8218486,10.0473735 11.822979,10.0806054 11.8246746,10.1138372 L11.8246746,10.1138372 L11.8320221,10.4171437 C11.8580212,11.4067142 12.0609266,13.1105056 12.2513978,13.8067919 C12.3763062,14.2620154 12.4119135,14.8253743 13.1641898,14.9287623 C13.5123507,14.9772913 13.801166,14.8855082 13.801166,14.8855082 C14.3556236,14.7283163 14.4997486,14.4297571 14.6240918,13.9207297 C14.7054801,13.597906 14.955862,12.710141 15.0937699,12.1378148 C15.1350293,11.9647982 15.1757234,11.7981115 15.2158523,11.6340623 L15.2158523,11.6340623 L15.5419706,10.3348554 C16.0489517,8.3652092 16.4027645,7.25009619 16.6616244,6.47732392 L16.6616244,6.47732392 L17.0832609,5.34585873 C17.1934741,5.13222544 17.2596021,4.8399962 17.2488634,4.70495887 C17.2211688,4.30986916 16.9289623,3.91055953 16.4089817,4.01763992 Z" id="Combined-Shape"></path></g></g></svg> 