<svg width="50" height="19" xmlns="http://www.w3.org/2000/svg">
 <!-- Generator: Sketch 59.1 (86144) - https://sketch.com -->

 <title>Order Delivery Icon</title>
 <desc>Created with Sketch.</desc>
 <g>
  <title>background</title>
  <rect fill="none" id="canvas_background" height="21" width="52" y="-1" x="-1"/>
 </g>
 <g>
  <title>Layer 1</title>
  <g stroke="null" fill-rule="evenodd" fill="none" id="With-Headers-UPDATED">
   <g stroke="null" id="108_Start-Pickup-Order">
    <g stroke="null" id="Order-Delivery-Icon">
     <path stroke="null" fill="#FFFFFF" id="Car" d="m15.092116,11.670723c2.005564,0 3.630811,1.591524 3.630811,3.553998c0,1.963411 -1.625247,3.553998 -3.630811,3.553998c-2.005564,0 -3.631748,-1.590588 -3.631748,-3.553998c0,-1.962474 1.626184,-3.553998 3.631748,-3.553998zm22.898092,0c2.005564,0 3.631748,1.591524 3.631748,3.553998c0,1.963411 -1.626184,3.553998 -3.631748,3.553998c-2.005564,0 -3.631748,-1.590588 -3.631748,-3.553998c0,-1.962474 1.626184,-3.553998 3.631748,-3.553998zm-18.204079,-11.148539c2.469251,-0.748457 10.684477,0.046837 13.125627,0.781243c1.613069,0.485232 3.963355,1.8229 7.048982,4.013939c0.051521,0.036533 0.105852,0.067445 0.16393,0.093674l0,0l6.634942,2.991953c1.744213,0.785926 2.919824,2.463631 3.063146,4.371774l0,0l0.162993,2.168557c0.039343,0.518955 -0.335354,0.977022 -0.851498,1.04072c-2.815846,0.347531 -4.895413,0.590147 -6.281791,0.734406c0.149879,-0.472118 0.231375,-0.973275 0.231375,-1.493166c0,-2.765262 -2.28565,-5.015316 -5.094002,-5.015316c-2.808352,0 -5.092129,2.250054 -5.092129,5.015316c0,0.57797 0.103978,1.131584 0.28758,1.649602l0,0l-13.289556,0c0.183601,-0.518018 0.289453,-1.071633 0.289453,-1.649602c0,-2.765262 -2.284713,-5.015316 -5.093065,-5.015316c-2.808352,0 -5.092129,2.250054 -5.092129,5.015316c0,0.184538 0.011241,0.365329 0.030912,0.544247c-0.635111,-0.165803 -1.309565,-0.346594 -2.058959,-0.551741c-0.493663,-0.134891 -0.799041,-0.627617 -0.698809,-1.129711l0,0l1.598082,-8.056916c0.058078,-0.291327 0.246363,-0.5405 0.511461,-0.676328c5.330998,-2.735286 8.798816,-4.345545 10.403455,-4.832651zm-13.569267,11.148165l-0.207957,1.041657l-2.354032,0c-0.28758,0 -0.520828,-0.233249 -0.520828,-0.520828c0,-0.28758 0.233249,-0.520828 0.520828,-0.520828l0,0l2.561989,0zm0.398209,-2.081534l-0.20702,1.04072l-4.534767,0c-0.28758,0 -0.520828,-0.232312 -0.520828,-0.519892c0,-0.28758 0.233249,-0.520828 0.520828,-0.520828l0,0l4.741787,0zm0.639233,-3.122629l-0.220134,1.041657l-6.501925,0c-0.28758,0 -0.520828,-0.233249 -0.520828,-0.520828c0,-0.28758 0.233249,-0.520828 0.520828,-0.520828l0,0l6.722059,0z"/>
     <path stroke="null" fill="#003950" id="Mask" d="m31.379733,5.726815c-0.242476,0.723895 -0.573914,1.768466 -1.048823,3.613519l-0.30549,1.217015c-0.037591,0.153672 -0.075707,0.309818 -0.114357,0.471884c-0.129186,0.536125 -0.363727,1.367737 -0.439969,1.670136c-0.116474,0.47683 -0.251487,0.756503 -0.770864,0.90375c0,0 -0.27055,0.085974 -0.596686,0.040514c-0.704692,-0.09685 -0.73804,-0.624573 -0.855049,-1.050996c-0.178421,-0.652235 -0.368496,-2.248255 -0.392851,-3.175227c-0.002642,-0.094864 -0.004759,-0.189241 -0.006876,-0.284114c-0.001592,-0.031128 -0.002651,-0.062265 -0.004243,-0.092897c-0.001059,-0.049413 -0.005293,-0.070162 -0.009527,-0.084494c-0.007944,-0.028664 -0.027531,-0.038547 -0.061413,-0.030641c-0.033357,0.007906 -0.058771,0.043484 -0.110657,0.176407c-0.086827,0.261388 -0.24937,0.765889 -0.373254,1.217015c-0.217071,0.757983 -0.470675,1.631102 -0.582391,2.124231c-0.126001,0.461514 -0.252546,0.923515 -0.378022,1.385029c-0.09847,0.414564 -0.5448,0.677433 -0.839695,0.749581c-0.321368,0.078068 -0.508791,0.091904 -0.752869,0.034088c-0.328253,-0.077572 -0.518327,-0.464961 -0.614681,-0.813317c-0.054003,-0.194683 -0.1546,-0.556874 -0.192716,-1.0006c-0.075183,-0.882008 -0.107482,-1.501635 -0.082068,-2.394022c0.029123,-1.032711 0.13713,-2.543245 0.208603,-3.381273c0.012702,-0.278194 0.025414,-0.555881 0.037591,-0.834075c0.001059,-0.309322 -0.018529,-0.501532 -0.059305,-0.639888c-0.03494,-0.117599 -0.079408,-0.18332 -0.16571,-0.299935c-0.029123,-0.039531 -0.058771,-0.065712 -0.066715,-0.092887c-0.050294,-0.18036 0.374847,-0.508951 0.943468,-0.629519c0.352608,-0.075099 0.659157,-0.090424 0.909586,0.115631c0.160426,0.169485 0.185306,0.33452 0.17578,0.677433c-0.003709,0.115631 -0.019597,0.285603 -0.03495,0.448175c-0.044467,0.538093 -0.192716,1.478413 -0.236658,2.016505c-0.076766,0.745141 -0.156183,1.578719 -0.17577,2.346089c-0.009536,0.376523 -0.014304,1.090527 0.016412,1.202205c0.015878,0.056326 0.043409,0.094377 0.093178,0.081525c0.049235,-0.013339 0.075183,-0.04991 0.148773,-0.234214c0.020646,-0.075108 0.040767,-0.150703 0.061413,-0.225811c0.020655,-0.075604 0.041301,-0.150712 0.061947,-0.226307c0,0 0.333555,-1.089543 0.616273,-1.979944c0.301781,-0.858786 0.605679,-1.744251 0.805813,-2.242822c0.297013,-0.735249 0.448437,-1.274831 0.96253,-1.396879c0.515142,-0.121065 0.986876,0.090424 1.084297,0.445692c0.049769,0.183817 0.051352,0.299439 0.029648,1.016908c-0.037067,1.256058 0.048711,2.248742 0.081,3.206355c0.025948,0.416541 0.061422,0.740691 0.104306,0.897324c0.019587,0.071155 0.060879,0.0924 0.094236,0.085487c0.066181,-0.013836 0.087361,-0.063745 0.128652,-0.238176c0.01748,-0.083998 0.035474,-0.168492 0.054003,-0.252489c0.120718,-0.56034 0.24196,-1.121168 0.363203,-1.681498c0.281135,-1.229371 0.47756,-1.95425 0.823284,-3.092709c0.41138,-1.351419 0.714743,-1.965116 1.230954,-2.071848c0.487087,-0.100306 0.760812,0.273744 0.786751,0.643841c0.010061,0.126498 -0.051886,0.400232 -0.155124,0.600358c-0.131303,0.353292 -0.263131,0.706594 -0.394968,1.059886z"/>
    </g>
   </g>
  </g>
 </g>
</svg>