<?xml version="1.0" encoding="UTF-8"?> <svg xmlns="http://www.w3.org/2000/svg" xmlns:xlink="http://www.w3.org/1999/xlink" width="30px" height="24px" viewBox="0 0 30 24" version="1.1"><!-- Generator: Sketch 59.1 (86144) - https://sketch.com --><title>Rewards Icon</title><desc>Created with Sketch.</desc><g id="Rachel---VD" stroke="none" stroke-width="1" fill="none" fill-rule="evenodd"><g id="icons/rewards/nav" transform="translate(-0.000000, 0.000000)"><path d="M18.2259109,0.000319113573 C24.3821146,0.000319113573 29.3743684,5.3933385 29.3743684,12.0468565 C29.3743684,18.2264909 25.0656321,23.3131612 19.5171678,24.0056377 C23.2090714,21.5979258 25.6779182,17.3058482 25.6779182,12.3978814 C25.6779182,6.89476787 22.5785985,2.16231357 18.1243684,0.000319113573 L18.1243684,0.000319113573 Z M12.5,0 L12.8018264,0.00387180834 C19.221327,0.167184231 24.375,5.47571676 24.375,12 C24.375,18.6262252 19.0590164,24 12.5,24 C12.2223355,24 11.949514,23.9761589 11.6766925,23.9570861 C5.50350054,23.527947 0.625,18.3464901 0.625,12 C0.625,5.37218543 5.94098355,0 12.5,0 L12.5,0 Z" id="Combined-Shape" fill="#CD2028"></path><g id="icons/w" transform="translate(5.000000, 5.052632)" fill="#FFFFFF"><path d="M12.8582805,3.0966549 C12.5347057,4.06262024 12.0924396,5.4565115 11.4587132,7.91856922 L11.0510654,9.54257782 C11.0009042,9.7476394 10.9500366,9.9559978 10.8984624,10.1722685 C10.7260775,10.8876763 10.4131001,11.9973826 10.3113648,12.4009121 C10.1559358,13.0371964 9.97577947,13.4103953 9.28270752,13.6068852 C9.28270752,13.6068852 8.92168839,13.7216142 8.48648725,13.6609529 C7.54614192,13.5317179 7.50163272,12.8275193 7.34549724,12.2584899 C7.1074083,11.3881321 6.85377647,9.2583928 6.82127768,8.02142969 C6.81774521,7.89483218 6.81491923,7.76889404 6.81209324,7.64229654 C6.80997376,7.60075673 6.80856077,7.55921692 6.80644128,7.51833648 C6.80502829,7.45240028 6.79937633,7.42470708 6.79372436,7.40558558 C6.78312693,7.36734258 6.75698661,7.35415534 6.7117709,7.36470513 C6.6672617,7.37525493 6.63334992,7.42272899 6.56411337,7.60009737 C6.44824813,7.94889987 6.23135406,8.62210847 6.06603414,9.22410598 C5.77637105,10.2355673 5.43795977,11.4006599 5.28888925,12.0587032 C5.12074335,12.6745473 4.95189096,13.2910508 4.78445156,13.9068949 C4.65304342,14.4600996 4.05746784,14.8108802 3.66394992,14.9071471 C3.23510724,15.0113263 2.98500788,15.0297884 2.65931352,14.952643 C2.22128639,14.8491232 1.96765456,14.3321834 1.83907241,13.8673332 C1.76700988,13.6075446 1.63277576,13.1242322 1.58190809,12.5321251 C1.48158575,11.355164 1.43848954,10.528324 1.47240131,9.33751624 C1.51125856,7.95944966 1.65538361,5.94378002 1.75076049,4.82550207 C1.76771637,4.45428126 1.78467226,4.08371982 1.80092166,3.71249901 C1.80233465,3.2997384 1.77619432,3.04324658 1.72179418,2.85862522 C1.67516548,2.70169707 1.61581987,2.61400192 1.50066113,2.45839249 C1.46180388,2.40564353 1.42224014,2.37069734 1.41164271,2.33443243 C1.34452565,2.0937653 1.91184143,1.65528957 2.67061744,1.49440524 C3.14114335,1.39418222 3.55020417,1.373742 3.88437647,1.64869595 C4.09844457,1.87485712 4.13164985,2.09508403 4.11893293,2.55268125 C4.11398746,2.70697196 4.0927926,2.93379249 4.07230424,3.15072259 C4.01295863,3.86876781 3.81513993,5.12353369 3.75650081,5.84157891 C3.65405898,6.83589681 3.54808468,7.94824051 3.52194435,8.97222969 C3.50922744,9.47466354 3.50286898,10.4274416 3.54384571,10.5764574 C3.56504057,10.6516247 3.60177833,10.7023956 3.66818889,10.6852522 C3.73389296,10.6674494 3.76851123,10.6186566 3.86671409,10.3727146 C3.89426741,10.2724916 3.92111423,10.1716092 3.94866755,10.0713861 C3.97622087,9.97050376 4.00377419,9.87028074 4.03132751,9.76939835 C4.03132751,9.76939835 4.47641958,8.31550514 4.85368811,7.12733481 C5.25639046,5.98136366 5.6619188,4.79978695 5.92897404,4.13449069 C6.32531794,3.15336004 6.52737561,2.43333673 7.21338261,2.27047432 C7.90080259,2.10893063 8.53028996,2.39113756 8.66028511,2.86521884 C8.72669567,3.11050151 8.72881516,3.26479221 8.69984885,4.22218584 C8.65039417,5.89828405 8.76484642,7.2229423 8.80794264,8.50078586 C8.84256091,9.05662803 8.8898961,9.4891695 8.94712222,9.69818725 C8.97326255,9.79313538 9.02836919,9.82148795 9.0728784,9.81225688 C9.16119032,9.79379474 9.18945013,9.72719918 9.24455677,9.4944444 C9.26787112,9.38235286 9.29189196,9.26960195 9.3166193,9.15751041 C9.47770024,8.40979391 9.63948768,7.66141803 9.80127511,6.91370153 C10.1764241,5.27320887 10.4385339,4.30592481 10.8998754,2.78675476 C11.4488223,0.983399693 11.8536441,0.164472088 12.5424771,0.0220498958 C13.1924528,-0.11180059 13.5577109,0.387336444 13.5923292,0.881198583 C13.6057526,1.04999525 13.5230927,1.4152818 13.3853261,1.68232341 C13.2101152,2.15376724 13.0341979,2.62521107 12.8582805,3.0966549 Z" id="Mask"></path></g></g></g></svg> 